<?xml version="1.0" standalone="no"?>
<!DOCTYPE svg PUBLIC "-//W3C//DTD SVG 20010904//EN"
 "http://www.w3.org/TR/2001/REC-SVG-20010904/DTD/svg10.dtd">
<svg version="1.0" xmlns="http://www.w3.org/2000/svg"
 width="512.000000pt" height="506.000000pt" viewBox="0 0 512.000000 506.000000"
 preserveAspectRatio="xMidYMid meet">

<g transform="translate(0.000000,506.000000) scale(0.100000,-0.100000)"
fill="#000000" stroke="none">
<path d="M0 2530 l0 -2530 2560 0 2560 0 0 2530 0 2530 -2560 0 -2560 0 0
-2530z m2290 1165 c102 -13 239 -31 305 -41 172 -23 381 -15 665 27 294 43
512 47 602 11 151 -60 182 -200 102 -452 -57 -183 -122 -278 -220 -326 -47
-23 -73 -28 -159 -32 -172 -8 -326 27 -550 124 -89 38 -92 39 -215 39 l-125 0
-125 -57 c-175 -80 -269 -102 -445 -102 -126 -1 -145 1 -192 23 -29 13 -72 45
-98 72 -96 103 -179 340 -173 494 4 101 27 149 91 189 100 62 244 70 537 31z"/>
<path d="M2115 3575 c-81 -44 -95 -79 -95 -230 0 -135 11 -169 66 -211 31 -24
47 -29 95 -29 65 0 98 18 137 75 20 30 22 45 22 157 0 143 -10 177 -64 218
-46 35 -117 44 -161 20z"/>
<path d="M3425 3576 c-41 -19 -83 -66 -95 -107 -13 -44 -13 -204 0 -251 13
-46 77 -105 124 -114 71 -13 143 24 175 90 17 35 21 61 21 153 0 95 -3 116
-23 153 -39 74 -130 108 -202 76z"/>
</g>
</svg>
